<?xml version="1.0" standalone="no"?>
<!DOCTYPE svg PUBLIC "-//W3C//DTD SVG 20010904//EN"
 "http://www.w3.org/TR/2001/REC-SVG-20010904/DTD/svg10.dtd">
<svg version="1.0" xmlns="http://www.w3.org/2000/svg"
 width="512.000000pt" height="512.000000pt" viewBox="0 0 512.000000 512.000000"
 preserveAspectRatio="xMidYMid meet">
<metadata>
Created by potrace 1.11, written by Peter Selinger 2001-2013
</metadata>
<g transform="translate(0.000000,512.000000) scale(0.100000,-0.100000)"
fill="#000000" stroke="none">
<path d="M2545 4982 c-40 -4 -116 -31 -137 -50 -10 -8 -18 -12 -18 -8 0 4 -16
-8 -34 -28 -67 -68 -100 -152 -97 -245 1 -37 18 -99 32 -117 5 -6 7 -13 4 -16
-3 -3 17 -27 44 -55 47 -47 123 -93 156 -93 18 0 17 8 19 -122 1 -67 -3 -108
-9 -109 -5 0 -123 -1 -260 -3 -138 -1 -255 -5 -260 -8 -6 -3 -28 -9 -50 -13
-58 -10 -59 -10 -72 -18 -7 -5 -13 -6 -13 -2 0 3 -16 -1 -35 -9 -19 -8 -35
-13 -35 -10 0 2 -11 -3 -25 -12 -14 -9 -25 -13 -25 -10 0 4 -10 0 -23 -9 -13
-8 -27 -12 -30 -8 -4 3 -7 1 -7 -5 0 -10 -40 -28 -49 -23 -2 2 -7 -1 -10 -6
-3 -5 -24 -20 -46 -33 -48 -29 -59 -37 -97 -72 -16 -16 -33 -28 -38 -28 -13 0
-160 -162 -155 -170 3 -4 -2 -10 -10 -13 -12 -5 -108 -157 -111 -176 0 -4 -8
-23 -17 -43 -10 -21 -17 -39 -17 -42 0 -3 -5 -17 -12 -33 -13 -33 -15 -39 -23
-78 -12 -54 -13 -60 -15 -65 -1 -3 -2 -8 -1 -12 1 -7 -26 -25 -41 -27 -42 -7
-141 -57 -173 -87 -14 -13 -28 -24 -31 -24 -20 0 -107 -132 -129 -197 -26 -76
-27 -82 -32 -203 -5 -126 9 -211 49 -297 23 -50 30 -60 62 -95 21 -23 22 -36
11 -158 -15 -171 -2 -351 36 -521 6 -26 11 -53 12 -60 2 -8 6 -19 9 -25 4 -6
9 -21 11 -35 7 -37 48 -152 60 -167 5 -6 7 -12 4 -12 -9 0 90 -197 102 -205 6
-3 9 -10 6 -14 -2 -5 5 -19 16 -32 12 -13 27 -37 35 -52 8 -15 21 -36 29 -45
7 -9 41 -51 74 -92 96 -120 266 -277 376 -348 11 -7 34 -21 50 -32 17 -10 35
-22 40 -27 6 -4 17 -9 25 -11 8 -2 17 -7 20 -12 7 -11 148 -81 173 -86 11 -2
23 -7 26 -11 6 -8 169 -62 246 -82 86 -22 152 -33 203 -35 17 -1 32 -3 32 -6
0 -3 30 -7 68 -8 37 -2 95 -5 129 -7 40 -2 61 1 57 7 -4 6 3 5 15 -1 16 -9 21
-9 21 1 0 9 3 9 10 -2 5 -8 10 -10 10 -3 0 6 8 9 19 6 10 -3 29 1 41 7 18 10
21 9 15 -1 -5 -8 -4 -10 3 -5 6 4 31 9 54 12 24 3 54 7 68 8 14 2 42 8 63 14
20 6 37 8 37 6 0 -3 8 0 19 5 10 6 33 13 51 16 18 3 40 10 49 14 9 5 21 9 26
10 19 2 80 24 89 31 5 5 15 6 22 3 8 -3 14 0 14 6 0 6 5 11 11 11 14 0 122 52
130 63 3 5 12 9 20 10 8 2 21 7 29 12 28 18 55 34 88 51 17 10 32 21 32 26 0
4 7 8 15 8 9 0 18 7 21 15 4 8 12 15 20 15 7 0 17 7 22 16 5 9 13 16 18 16 26
-1 304 271 304 297 0 6 4 11 9 11 4 0 21 19 37 43 16 23 33 45 39 49 6 5 6 8
1 8 -6 0 -1 7 10 15 10 8 15 15 11 15 -4 0 1 10 13 22 26 28 156 291 158 318
0 4 11 35 38 105 4 11 6 24 5 28 0 4 3 16 8 26 9 17 17 47 25 96 2 11 6 31 10
45 5 24 8 44 23 170 8 71 7 265 -2 356 -7 66 -5 72 19 101 14 17 26 36 26 41
0 6 7 18 16 26 9 9 17 22 18 29 1 6 5 18 10 25 42 68 52 329 16 439 -23 73
-48 125 -77 161 -29 38 -104 112 -113 112 -5 0 -15 6 -22 13 -20 19 -124 62
-160 66 -4 1 -11 19 -14 41 -4 22 -11 43 -15 46 -5 3 -7 9 -4 14 3 5 0 21 -6
37 -7 15 -13 33 -14 38 -3 22 -30 83 -63 145 -19 36 -42 79 -51 97 -9 18 -22
32 -28 33 -7 0 -13 5 -13 12 0 14 -90 119 -144 168 -22 19 -45 41 -52 48 -7 6
-17 12 -22 12 -6 0 -12 3 -14 8 -5 11 -66 52 -78 52 -5 0 -10 3 -10 8 0 8
-142 77 -200 97 -3 1 -12 5 -20 8 -8 4 -27 8 -42 11 -15 3 -32 7 -36 10 -5 3
-24 8 -43 10 -19 3 -45 8 -59 12 -14 3 -137 7 -275 9 l-250 2 -2 24 c-7 76 -8
129 0 129 4 0 4 8 -1 18 -11 22 -1 56 17 60 8 2 29 9 48 17 18 8 36 14 38 14
3 0 17 12 31 26 14 14 29 25 35 25 6 0 7 5 4 10 -3 6 1 13 9 16 17 6 50 71 63
124 11 40 9 111 -2 155 -10 39 -54 115 -67 115 -5 0 -6 5 -3 10 3 6 0 10 -8
10 -8 0 -17 6 -20 13 -7 18 -102 65 -152 75 -22 4 -53 6 -70 4z"/>
</g>
</svg>
